<svg width="227" height="60" fill="none" xmlns="http://www.w3.org/2000/svg"><g clip-path="url(#a)"><path d="M19 0 0 13.646v35.0041l10.5341 10.534-.232-36.7645L19 15.3082l8.6979 7.1114-.232 36.7645L38 48.6501V13.646L19 0Z" fill="#252420"/><path d="M25.9939 29.5921 19 33.791l-6.9938-4.1989v12.2585L19 46.055l6.9939-4.2044V29.5921Z" fill="#FF7401"/></g><path d="M62.6875 35.9358h-6.2656l-1.2188 4.6563h-4.8593l7.1093-22.75h4.2031l7.1563 22.75h-4.9063l-1.2187-4.6563Zm-5.2656-3.8281h4.25l-2.125-8.1094-2.125 8.1094Zm18.9219 1.9687-1.1876 1.3282v5.1875h-4.4218v-24h4.4218v12.9687l.5469-.8125 3.0625-5.0625h5.2656l-4.9062 6.9688 5.375 9.9375h-5.0625l-3.0937-6.5157Zm17.7343 6.5157c-.125-.2604-.25-.6979-.375-1.3125-.7916 1.0833-1.8646 1.625-3.2187 1.625-1.4167 0-2.5938-.4688-3.5313-1.4063-.9271-.9375-1.3906-2.151-1.3906-3.6406 0-1.7708.5625-3.1406 1.6875-4.1094 1.1354-.9687 2.7656-1.4635 4.8906-1.4844h1.3438v-1.3593c0-.7604-.1302-1.2969-.3906-1.6094-.2605-.3125-.6407-.4688-1.1407-.4688-1.1041 0-1.6562.6459-1.6562 1.9375H85.875c0-1.5625.5833-2.8489 1.75-3.8593 1.1771-1.0209 2.6615-1.5313 4.4531-1.5313 1.8542 0 3.2865.4844 4.2969 1.4531 1.0208.9584 1.5312 2.3334 1.5312 4.125v7.9532c.0209 1.4583.2292 2.5989.625 3.4218v.2657h-4.4531Zm-2.6093-3.1563c.4895 0 .9062-.0989 1.25-.2969.3437-.1979.5989-.4322.7656-.7031v-3.5156h-1.0625c-.75 0-1.3438.2396-1.7813.7187-.4271.4792-.6406 1.1198-.6406 1.9219 0 1.25.4896 1.875 1.4688 1.875Zm9.0472-5.8125c0-2.7708.468-4.8385 1.406-6.2031.937-1.3646 2.302-2.0469 4.094-2.0469 1.302 0 2.385.5625 3.25 1.6875v-8.4687h4.453v24h-4.016l-.203-1.7188c-.906 1.3542-2.073 2.0313-3.5 2.0313-1.771 0-3.125-.6771-4.062-2.0313-.928-1.3541-1.402-3.3437-1.422-5.9687v-1.2813Zm4.437 1.1094c0 1.6667.177 2.8333.531 3.5.355.6562.954.9844 1.797.9844.875 0 1.537-.3907 1.985-1.1719v-7.7188c-.438-.8333-1.094-1.25-1.969-1.25-.813 0-1.406.3282-1.781.9844-.375.6563-.563 1.8229-.563 3.5v1.1719Zm18.859 8.1719c-2.27 0-4.041-.6771-5.312-2.0313-1.271-1.3541-1.906-3.2916-1.906-5.8125v-1.3437c0-2.6667.583-4.724 1.75-6.1719 1.166-1.4479 2.838-2.1719 5.015-2.1719 2.125 0 3.724.6823 4.797 2.0469 1.073 1.3542 1.62 3.3646 1.641 6.0312v2.1719H121c.062 1.25.339 2.1667.828 2.75.49.5729 1.245.8594 2.266.8594 1.479 0 2.713-.5052 3.703-1.5156l1.734 2.6718c-.541.75-1.328 1.3594-2.359 1.8282-1.031.4583-2.151.6875-3.36.6875Zm-2.781-10.375h4.422v-.4063c-.021-1.0104-.187-1.776-.5-2.2969-.312-.5208-.854-.7812-1.625-.7812s-1.333.276-1.687.8281c-.344.5521-.547 1.4375-.61 2.6563Zm15.422-6.8438.125 1.5625c.99-1.25 2.297-1.875 3.922-1.875 1.688 0 2.88.7604 3.578 2.2813.969-1.5209 2.349-2.2813 4.141-2.2813 2.958 0 4.474 2.0469 4.547 6.1406v11.0782h-4.422V29.7952c0-.9792-.136-1.6771-.406-2.0938-.271-.4166-.73-.625-1.376-.625-.822 0-1.437.5053-1.843 1.5157l.031.5312v11.4688h-4.422V29.8264c0-.9687-.13-1.6666-.39-2.0937-.261-.4375-.724-.6563-1.391-.6563-.761 0-1.365.4115-1.813 1.2344v12.2813h-4.422V23.6858h4.141Z" fill="#252420"/><path d="m160.094 23.6858.125 1.6719c1-1.3229 2.307-1.9844 3.922-1.9844 2.906 0 4.401 2.0365 4.484 6.1094v11.1094h-4.437V29.8108c0-.9583-.146-1.651-.438-2.0781-.281-.4375-.781-.6563-1.5-.6563-.802 0-1.427.4115-1.875 1.2344v12.2813h-4.437V23.6858h4.156Zm19.734 16.9063c-.125-.2604-.25-.6979-.375-1.3125-.792 1.0833-1.864 1.625-3.219 1.625-1.416 0-2.593-.4688-3.531-1.4063-.927-.9375-1.391-2.151-1.391-3.6406 0-1.7708.563-3.1406 1.688-4.1094 1.135-.9687 2.766-1.4635 4.891-1.4844h1.343v-1.3593c0-.7604-.13-1.2969-.39-1.6094-.261-.3125-.641-.4688-1.141-.4688-1.104 0-1.656.6459-1.656 1.9375h-4.422c0-1.5625.583-2.8489 1.75-3.8593 1.177-1.0209 2.661-1.5313 4.453-1.5313 1.854 0 3.287.4844 4.297 1.4531 1.021.9584 1.531 2.3334 1.531 4.125v7.9532c.021 1.4583.229 2.5989.625 3.4218v.2657h-4.453Zm-2.609-3.1563c.489 0 .906-.0989 1.25-.2969.343-.1979.599-.4322.765-.7031v-3.5156h-1.062c-.75 0-1.344.2396-1.781.7187-.427.4792-.641 1.1198-.641 1.9219 0 1.25.49 1.875 1.469 1.875Zm17.125-1.375c0-.375-.183-.7187-.547-1.0312-.354-.3229-1.151-.7552-2.391-1.2969-1.823-.7396-3.078-1.5052-3.765-2.2969-.677-.7916-1.016-1.776-1.016-2.9531 0-1.4792.531-2.6979 1.594-3.6563 1.073-.9687 2.489-1.4531 4.25-1.4531 1.854 0 3.338.4792 4.453 1.4375 1.114.9584 1.672 2.2448 1.672 3.8594h-4.422c0-1.375-.573-2.0625-1.719-2.0625-.469 0-.854.1458-1.156.4375-.302.2917-.453.6979-.453 1.2187 0 .375.166.7084.5 1 .333.2813 1.12.6875 2.359 1.2188 1.802.6667 3.073 1.4115 3.813 2.2344.75.8125 1.125 1.8698 1.125 3.1718 0 1.5105-.568 2.724-1.703 3.6407-1.136.9166-2.626 1.375-4.469 1.375-1.24 0-2.334-.2396-3.281-.7188-.948-.4896-1.693-1.1666-2.235-2.0312-.531-.8646-.797-1.7969-.797-2.7969h4.203c.021.7708.198 1.349.532 1.7344.343.3854.901.5781 1.671.5781 1.188 0 1.782-.5365 1.782-1.6094Zm11.359-10.8906c.958-1.1979 2.136-1.7969 3.531-1.7969 1.542 0 2.714.5417 3.516 1.625.802 1.0834 1.208 2.6979 1.219 4.8438v10.75h-4.438V29.8889c0-.9895-.156-1.7031-.469-2.1406-.302-.4479-.796-.6719-1.484-.6719-.802 0-1.427.3698-1.875 1.1094v12.4063h-4.422v-24h4.422v8.5781Zm19.781 2.7812-1.468-.125c-1.209 0-2.026.5313-2.454 1.5938v11.1719h-4.437V23.6858h4.172l.125 1.8281c.698-1.427 1.661-2.1406 2.89-2.1406.5 0 .907.0677 1.219.2031l-.047 4.375Z" fill="#FF7500"/><defs><clipPath id="a"><path fill="#fff" d="M0 0h38v59.1841H0z"/></clipPath></defs></svg>