<svg width="40" height="52" fill="none" xmlns="http://www.w3.org/2000/svg"><path fill-rule="evenodd" clip-rule="evenodd" d="M23.6418.929542C24.8074 1.29696 25.6 2.37789 25.6 3.60001V17.6h11.2c1.0441 0 2.0014.5809 2.4835 1.5069.4822.9261.4091 2.0435-.1896 2.8988l-19.6 28c-.7009 1.0012-1.9701 1.4322-3.1357 1.0648C15.1926 50.7031 14.4 49.6221 14.4 48.4v-14H3.2c-1.04405 0-2.00138-.5809-2.483538-1.5069-.482154-.9261-.409033-2.0435.189691-2.8988L20.5062 1.99431C21.207.993116 22.4762.562125 23.6418.929542Z" fill="#FF7500"/></svg>