<svg width="46" height="46" fill="none" xmlns="http://www.w3.org/2000/svg"><path fill-rule="evenodd" clip-rule="evenodd" d="M9.00001.599976C10.5464.599976 11.8 1.85358 11.8 3.39998v2.8h2.8c1.5464 0 2.8 1.2536 2.8 2.8C17.4 10.5464 16.1464 11.8 14.6 11.8h-2.8v2.8c0 1.5464-1.2536 2.8-2.79999 2.8-1.5464 0-2.8-1.2536-2.8-2.8v-2.8h-2.8c-1.5464 0-2.800004-1.2536-2.800004-2.80002 0-1.5464 1.253604-2.8 2.800004-2.8h2.8v-2.8c0-1.5464 1.2536-2.800004 2.8-2.800004Zm0 28.000024C10.5464 28.6 11.8 29.8536 11.8 31.4v2.8h2.8c1.5464 0 2.8 1.2536 2.8 2.8 0 1.5464-1.2536 2.8-2.8 2.8h-2.8v2.8c0 1.5464-1.2536 2.8-2.79999 2.8-1.5464 0-2.8-1.2536-2.8-2.8v-2.8h-2.8C1.85361 39.8.600006 38.5464.600006 37c0-1.5464 1.253604-2.8 2.800004-2.8h2.8v-2.8c0-1.5464 1.2536-2.8 2.8-2.8ZM28.5999.599976c1.2704 0 2.3816.855354 2.7067 2.083504L34.6084 15.157l9.3907 5.4177c.8667.5 1.4008 1.4246 1.4008 2.4253 0 1.0006-.5341 1.9252-1.4008 2.4253l-9.3907 5.4177-3.3018 12.4735c-.3251 1.2281-1.4363 2.0835-2.7067 2.0835-1.2705 0-2.3817-.8554-2.7068-2.0835L22.5913 30.843l-9.3905-5.4177C12.334 24.9252 11.8 24.0006 11.8 23c0-1.0007.534-1.9253 1.4008-2.4253l9.3905-5.4177 3.3018-12.47352c.3251-1.22815 1.4363-2.083504 2.7068-2.083504Z" fill="#FF7500"/></svg>